<?xml version="1.0" standalone="no"?>
<!DOCTYPE svg PUBLIC "-//W3C//DTD SVG 1.1//EN" "http://www.w3.org/Graphics/SVG/1.1/DTD/svg11.dtd" >
<svg xmlns="http://www.w3.org/2000/svg">
<metadata>Generated by IcoMoon</metadata>
<defs>
<font id="megadlfont" horiz-adv-x="1024">
<font-face units-per-em="1024" ascent="960" descent="-64" />
<missing-glyph horiz-adv-x="1024" />
<glyph unicode="&#x20;" horiz-adv-x="512" d="" />
<glyph unicode="&#xe601;" glyph-name="buffer" d="M85.321 448c0-235.593 191.013-426.679 426.679-426.679 235.593 0 426.679 191.086 426.679 426.679h85.321c0-282.734-229.266-512-512-512-282.77 0-512 229.266-512 512 0 282.77 229.23 512 512 512v-85.321c-235.666 0-426.679-191.013-426.679-426.679v0z" />
<glyph unicode="&#xe604;" glyph-name="ccjw-off" horiz-adv-x="1536" d="M64 0v896h1408v-896h-1408zM1397.888 821.344h-1259.776v-746.656h1259.776v746.656zM409.344 606.336c17.792 20.384 39.808 36.416 65.792 47.968 25.952 11.648 55.296 17.472 87.904 17.472 23.392 0 45.568-3.424 66.464-10.24 20.896-6.688 39.584-16.672 56.096-29.728 16.448-13.024 30.080-29.088 40.768-48.352 10.752-19.2 17.504-41.216 20.288-65.984h-90.4c-1.696 10.816-5.216 20.672-10.816 29.696-5.568 8.96-12.608 16.864-20.896 23.744-8.288 6.688-17.792 12.096-28.32 15.904-10.528 3.712-21.472 5.632-33.056 5.632-21.056 0-38.912-4.16-53.664-12.352-14.656-8.224-26.688-19.2-35.712-32.992-9.12-13.824-15.808-29.568-20-47.008-4.128-17.728-6.24-35.872-6.24-54.784 0-17.952 2.080-35.488 6.24-52.544 4.224-16.96 10.912-32.288 20-45.856 9.12-13.664 21.056-24.512 35.712-32.672 14.816-8.256 32.64-12.352 53.664-12.352 28.608 0 50.976 8.768 67.072 26.432 16 17.632 25.952 40.832 29.408 69.664h90.528c-2.432-26.912-8.576-51.072-18.496-72.672-9.952-21.696-22.976-40.096-39.264-55.296-16.32-15.232-35.424-26.848-57.312-34.816-21.856-8.032-45.952-11.968-72.096-11.968-32.608 0-61.888 5.632-87.904 17.152-25.92 11.232-47.936 26.976-65.952 47.040-17.792 20-31.488 43.52-40.96 70.592-9.664 27.008-14.4 56.096-14.4 87.328 0 32.096 4.896 61.728 14.464 89.184 9.472 27.296 23.168 51.264 41.056 71.648v0.16zM850.848 606.336c17.792 20.384 39.904 36.416 65.984 47.968 25.92 11.648 55.2 17.472 87.808 17.472 23.392 0 45.568-3.424 66.464-10.24 20.736-6.688 39.488-16.672 55.968-29.728 16.512-13.024 30.144-29.088 40.736-48.352 10.816-19.2 17.568-41.216 20.384-65.984h-90.624c-1.504 10.816-5.216 20.672-10.656 29.696-5.632 8.96-12.608 16.864-20.896 23.744-8.16 6.688-17.824 12.096-28.192 15.904-10.592 3.712-21.6 5.632-33.12 5.632-21.056 0-38.976-4.16-53.664-12.352-14.816-8.224-26.656-19.2-35.776-32.992-9.184-13.824-15.808-29.568-20-47.008-4.128-17.728-6.24-35.872-6.24-54.784 0-17.952 2.080-35.488 6.24-52.544 4.224-16.96 10.816-32.288 20-45.856 9.12-13.664 21.056-24.512 35.712-32.672 14.624-8.256 32.608-12.352 53.6-12.352 28.608 0 50.912 8.768 67.072 26.432 16.064 17.632 25.92 40.832 29.504 69.664h90.56c-2.4-26.912-8.544-51.072-18.56-72.672-9.856-21.696-22.944-40.096-39.264-55.296-16.32-15.232-35.36-26.848-57.216-34.816-21.888-8.032-45.952-11.968-72.096-11.968-32.608 0-61.888 5.632-87.904 17.152-25.952 11.232-48 26.976-65.952 47.040-17.792 20-31.488 43.52-41.056 70.592-9.472 27.008-14.272 56.096-14.272 87.328 0 32.096 4.8 61.728 14.272 89.184 9.664 27.296 23.264 51.264 41.12 71.648l0.064 0.16z" />
<glyph unicode="&#xe605;" glyph-name="cc" horiz-adv-x="1536" d="M1323.776 0h-1111.552c-81.888 0-148.224 66.848-148.224 149.344v597.344c0 82.496 66.336 149.312 148.224 149.312h1111.552c81.888 0 148.224-66.816 148.224-149.312v-597.344c0-82.496-66.336-149.344-148.224-149.344zM453.632 500.032c4.224 17.536 10.88 33.28 20 47.040 9.12 13.92 21.056 24.864 35.712 33.088 14.816 8.224 32.608 12.32 53.664 12.32 11.552 0 22.528-1.856 33.056-5.664 10.528-3.872 20-9.184 28.288-15.968 8.416-6.88 15.36-14.784 20.896-23.744 5.568-8.96 9.12-18.88 10.72-29.728h90.432c-2.752 24.768-9.472 46.848-20.256 66.016-10.656 19.264-24.288 35.328-40.736 48.416-16.544 12.992-35.2 22.912-56 29.696-20.704 6.72-42.976 10.24-66.4 10.24-32.608 0-61.92-5.856-87.904-17.472-25.92-11.552-47.968-27.616-65.952-48-17.792-20.416-31.488-44.352-40.96-71.68-9.664-27.456-14.336-57.152-14.336-89.216 0-31.2 4.736-60.32 14.336-87.328 9.472-27.072 23.232-50.56 41.024-70.56s39.808-35.84 65.824-47.072c25.952-11.456 55.296-17.152 87.872-17.152 26.24 0 50.272 3.936 72.096 11.904 21.92 8 40.896 19.648 57.216 34.912 16.32 15.2 29.376 33.632 39.328 55.264 9.92 21.664 16.096 45.76 18.528 72.672h-90.56c-3.552-28.832-13.344-52.032-29.504-69.696-16.16-17.632-38.528-26.432-67.168-26.432-21.024 0-38.88 4.16-53.664 12.352-14.656 8.224-26.656 19.136-35.68 32.672-9.12 13.568-15.808 28.896-20 45.952-4.128 17.184-6.176 34.656-6.176 52.64 0 18.784 2.048 37.056 6.176 54.656h0.128v-0.128zM895.328 500.032c4.192 17.536 10.784 33.28 20 47.040 9.024 13.92 20.992 24.864 35.584 33.088 14.816 8.224 32.64 12.32 53.728 12.32 11.488 0 22.528-1.856 33.056-5.664 10.336-3.872 20-9.184 28.16-15.968 8.48-6.88 15.328-14.784 20.96-23.744 5.536-8.96 9.088-18.88 10.656-29.728h90.656c-2.816 24.768-9.696 46.848-20.352 66.016-10.656 19.264-24.288 35.328-40.704 48.416-16.544 12.992-35.264 22.912-56.032 29.696-20.864 6.72-42.976 10.24-66.464 10.24-32.64 0-61.888-5.856-87.872-17.472-25.984-11.552-48-27.616-65.984-48-17.824-20.416-31.456-44.352-41.056-71.68-9.472-27.456-14.24-57.152-14.24-89.216 0-31.2 4.768-60.32 14.24-87.328 9.664-27.072 23.296-50.56 41.088-70.56 17.856-20 39.872-35.84 65.984-47.072 25.984-11.456 55.232-17.152 87.808-17.152 26.208 0 50.208 3.936 72.096 11.904 21.888 8 40.896 19.648 57.216 34.912 16.32 15.2 29.44 33.632 39.296 55.264 10.016 21.696 16.192 45.76 18.528 72.672h-90.528c-3.712-28.832-13.376-52.032-29.536-69.696-16.16-17.632-38.496-26.432-67.072-26.432-21.024 0-38.944 4.16-53.664 12.352-14.848 8.224-26.72 19.136-35.776 32.672-9.184 13.568-15.776 28.896-20 45.952-4.192 17.184-6.208 34.656-6.208 52.64 0 18.784 2.016 37.056 6.208 54.656h0.192v-0.128z" />
<glyph unicode="&#xe609;" glyph-name="hdjw-off" horiz-adv-x="1536" d="M64 0v896h1408v-896h-1408zM1398.4 822.4h-1260.8v-745.6h1260.8v745.6zM457.6 502.4h182.4v172.8h96v-448h-96v192h-182.4v-192h-99.2v448h99.2v-172.8zM1062.4 659.2c25.6-9.6 44.8-22.4 64-41.6s32-41.6 41.6-70.4 16-60.8 16-96c0-32-3.2-64-12.8-89.6-9.6-28.8-22.4-51.2-38.4-70.4s-38.4-35.2-64-48-54.4-16-89.6-16h-176v448h176c28.8-3.2 57.6-6.4 83.2-16v0zM902.4 592v-281.6h70.4c12.8 0 28.8 3.2 41.6 6.4s25.6 12.8 35.2 22.4c9.6 9.6 19.2 25.6 25.6 41.6s9.6 38.4 9.6 64c0 22.4-3.2 41.6-6.4 60.8s-12.8 35.2-22.4 48c-9.6 12.8-22.4 22.4-38.4 28.8s-38.4 9.6-60.8 9.6h-54.4z" />
<glyph unicode="&#xe60a;" glyph-name="hd" horiz-adv-x="1536" d="M1321.6 0h-1110.4c-83.2 0-150.4 67.2-150.4 150.4v595.2c0 83.2 67.2 150.4 150.4 150.4h1110.4c83.2 0 150.4-67.2 150.4-150.4v-595.2c0-83.2-67.2-150.4-150.4-150.4zM732.8 668.8h-96v-172.8h-179.2v172.8h-99.2v-448h99.2v192h179.2v-192h96v448zM1164.8 544c-9.6 28.8-25.6 51.2-41.6 70.4-19.2 19.2-38.4 32-64 41.6s-51.2 12.8-80 12.8h-176v-448h176c35.2 0 64 6.4 89.6 16 25.6 12.8 44.8 28.8 64 48 16 19.2 28.8 44.8 38.4 70.4 9.6 28.8 12.8 57.6 12.8 89.6-3.2 38.4-6.4 70.4-19.2 99.2v0 0zM1045.6 317.6c-9.6-9.8-22.4-19.6-35.2-22.9s-25.6-6.5-41.6-6.5h-70.4v287.3h54.4c25.6 0 44.8-3.3 60.8-9.8s28.8-16.3 38.4-29.4 16-29.4 22.4-49c3.2-19.6 6.4-39.2 6.4-62 0-26.1-3.2-45.7-9.6-65.3-6.4-16.3-16-32.6-25.6-42.4v0 0z" />
<glyph unicode="&#xe60b;" glyph-name="jw-logo" horiz-adv-x="992" d="M144 441.6c0-6.4-6.4-6.4-6.4 0l-3.2 12.8c0 0-6.4 19.2-12.8 38.4 0 6.4-6.4 12.8-9.6 22.4-6.4 6.4-16 9.6-28.8 6.4-9.6-3.2-16-12.8-16-22.4s0-16 0-25.6c3.2-25.6 22.4-121.6 32-140.8 9.6-22.4 35.2-32 54.4-22.4 22.4 9.6 28.8 35.2 38.4 54.4 9.6 25.6 60.8 166.4 60.8 166.4 6.4 12.8 9.6 12.8 9.6 0 0 0 0-140.8-3.2-204.8 0-25.6 0-67.2 9.6-89.6 6.4-16 12.8-28.8 25.6-38.4s28.8-12.8 44.8-12.8c6.4 0 16 3.2 22.4 6.4 9.6 6.4 16 12.8 25.6 22.4 16 19.2 28.8 44.8 38.4 64 25.6 51.2 89.6 201.6 89.6 201.6 6.4 12.8 9.6 12.8 9.6 0 0 0-9.6-256-9.6-355.2 0-25.6 6.4-48 12.8-70.4 9.6-22.4 22.4-38.4 44.8-48s48-9.6 70.4 3.2c16 9.6 28.8 25.6 38.4 38.4 12.8 22.4 25.6 48 32 70.4 19.2 51.2 35.2 102.4 51.2 153.6s153.6 540.8 163.2 582.4c0 6.4 0 9.6 0 12.8 0 9.6-6.4 19.2-16 22.4-16 6.4-32 0-38.4-12.8-6.4-16-195.2-470.4-195.2-470.4-6.4-12.8-9.6-12.8-9.6 0 0 0 0 156.8 0 288 0 70.4-35.2 108.8-83.2 118.4-22.4 3.2-44.8 0-67.2-12.8s-35.2-32-48-54.4c-16-28.8-105.6-297.6-105.6-297.6-6.4-12.8-9.6-12.8-9.6 0 0 0-3.2 115.2-6.4 144-3.2 41.6-12.8 108.8-67.2 115.2-51.2 3.2-73.6-57.6-86.4-99.2-9.6-25.6-51.2-163.2-51.2-163.2v-3.2z" />
<glyph unicode="&#xe900;" glyph-name="home" horiz-adv-x="955" d="M880.593 678.369l-2.596 2.378-293.955 235.565c-27.656 27.020-65.526 43.69-107.289 43.69s-79.633-16.67-107.318-43.719l0.030 0.029-292.241-234.483c-1.064-0.7-1.986-1.485-2.803-2.368l-0.009-0.010c-45.966-45.728-74.412-109.028-74.412-178.971 0-0.274 0-0.549 0.001-0.823v0.043-315.595c0.252-136.918 111.178-247.844 248.072-248.095h458.825c136.968 0.128 247.967 111.128 248.095 248.083v315.607c-0.083 69.837-28.513 133.018-74.4 178.668l-0.011 0.011zM890.116 183.023c-0.13-101.133-82.079-183.082-183.2-183.212h-458.822c-101.204 0.142-183.192 82.216-183.192 183.44 0 0.301 0.001 0.601 0.002 0.901v-0.046 315.595c-0.001 0.189-0.001 0.412-0.001 0.636 0 51.465 20.73 98.088 54.296 131.974l-0.015-0.015 292.883 234.047c0.983 0.696 1.836 1.479 2.58 2.358l0.017 0.020c16.131 16.15 38.426 26.14 63.054 26.14s46.923-9.99 63.053-26.139l0.001-0.001 2.596-2.378 292.665-234.047c33.434-33.947 54.078-80.572 54.078-132.019 0-0.203 0-0.407-0.001-0.61v0.031zM612.154 186.053h-269.296c-17.92 0-32.447-14.527-32.447-32.447s14.527-32.447 32.447-32.447h269.296c17.92 0 32.447 14.527 32.447 32.447s-14.527 32.447-32.447 32.447v0z" />
<glyph unicode="&#xe901;" glyph-name="anime" d="M512-64c-49.459 0-91.546 25.702-128.513 48.324-14.673 9.697-31.667 19.159-49.371 27.349l-2.444 1.014c-16.334 6.521-36.125 12.583-56.495 17.11l-2.691 0.502c-43.725 10.864-88.987 22.129-122.882 55.606s-44.849 78.856-55.711 122.889c-5.101 23.139-11.161 42.927-18.586 62.033l0.974-2.847c-9.203 20.148-18.664 37.142-29.281 53.31l0.922-1.495c-22.222 36.659-47.924 78.746-47.924 128.205s25.702 91.546 48.324 128.513c9.697 14.673 19.16 31.667 27.349 49.371l1.014 2.444c6.451 16.259 12.511 36.047 17.085 56.397l0.527 2.789c10.862 43.725 22.129 88.987 55.716 122.882s78.746 44.749 122.879 55.603c23.139 5.101 42.927 11.161 62.033 18.586l-2.847-0.974c20.147 9.204 37.142 18.667 53.309 29.285l-1.495-0.922c36.559 22.324 78.646 48.026 128.105 48.026s91.546-25.702 128.513-48.324c14.67-9.7 31.66-19.166 49.36-27.359l2.442-1.014c16.259-6.451 36.047-12.511 56.397-17.085l2.789-0.527c43.737-10.852 88.997-22.119 122.892-55.706s44.749-78.746 55.603-122.879c5.101-23.139 11.161-42.927 18.586-62.033l-0.974 2.847c9.204-20.147 18.667-37.142 29.285-53.31l-0.922 1.495c22.324-36.556 48.026-78.643 48.026-128.102s-25.702-91.546-48.324-128.513c-9.699-14.671-19.164-31.662-27.357-49.362l-1.014-2.443c-6.451-16.259-12.511-36.047-17.085-56.397l-0.527-2.789c-10.854-43.725-22.119-88.987-55.603-122.879s-78.849-44.749-122.879-55.603c-23.061-5.029-42.852-11.091-61.938-18.56l2.752 0.948c-20.147-9.204-37.142-18.667-53.309-29.285l1.495 0.922c-36.661-22.327-78.749-48.041-128.207-48.041zM512 898.561c-32.257 0-63.385-19.047-96.461-39.31-17.059-11.1-36.852-21.907-57.469-31.21l-2.843-1.148c-18.675-7.505-41.364-14.547-64.708-19.869l-3.184-0.61c-37.275-9.229-72.396-17.928-93.902-39.438s-30.72-56.627-39.423-93.894c-5.932-26.528-12.974-49.217-21.596-71.111l1.117 3.219c-10.549-23.45-21.454-43.243-33.727-62.063l1.061 1.736c-20.376-33.381-39.423-64.614-39.423-96.871s19.047-63.488 39.31-96.461c11.104-17.059 21.914-36.85 31.22-57.465l1.148-2.842c7.505-18.675 14.548-41.364 19.869-64.708l0.61-3.184c9.217-37.275 17.92-72.396 39.423-93.894s56.627-30.72 93.894-39.423c26.552-5.954 49.241-12.995 71.141-21.604l-3.249 1.125c23.45-10.55 43.244-21.456 62.065-33.729l-1.735 1.061c33.381-20.379 64.614-39.423 96.871-39.423s63.488 19.047 96.461 39.31c17.059 11.107 36.85 21.92 57.466 31.229l2.842 1.148c18.651 7.484 41.339 14.525 64.678 19.861l3.214 0.618c37.275 9.217 72.499 17.92 93.894 39.423s30.72 56.627 39.423 93.894c5.932 26.528 12.974 49.217 21.596 71.111l-1.117-3.219c10.55 23.444 21.455 43.232 33.727 62.048l-1.061-1.735c20.379 33.381 39.423 64.614 39.423 96.871s-19.047 63.488-39.31 96.461c-11.106 17.060-21.919 36.851-31.227 57.468l-1.148 2.843c-7.505 18.674-14.547 41.363-19.868 64.708l-0.611 3.184c-9.217 37.275-17.92 72.396-39.423 93.894s-56.627 30.72-93.894 39.526c-26.449 5.857-49.142 12.902-71.014 21.57l3.122-1.091c-23.444 10.55-43.232 21.455-62.048 33.727l1.735-1.061c-33.381 20.284-64.614 39.33-96.869 39.33zM484.966 222.718c-136.32 0.175-246.795 110.577-247.090 246.851v0.028c0.229 112.431 91.337 203.506 203.759 203.681h0.017c93.362-0.121 169.027-75.716 169.26-169.040v-0.022c-0.117-78.086-63.412-141.349-141.499-141.415h-0.006v61.442c44.187 0.001 80.015 35.793 80.073 79.967v0.006c-0.174 59.44-48.37 107.565-107.82 107.623h-0.006c-78.599-0.117-142.278-63.832-142.336-142.433v-0.006c0.348-102.31 83.309-185.126 185.639-185.242h0.011c132.287 0.175 239.487 107.339 239.719 239.596v0.022h61.439c-0.29-166.189-134.964-300.826-301.138-301.058h-0.022z" />
<glyph unicode="&#xe902;" glyph-name="profile" horiz-adv-x="817" d="M408.115 440.325c0.233-0.001 0.509-0.001 0.784-0.001 143.504 0 259.837 116.333 259.837 259.837s-116.333 259.837-259.837 259.837c-143.504 0-259.837-116.333-259.837-259.836v0c0 0 0-0.001 0-0.001 0-143.228 115.886-259.39 259.010-259.836h0.043zM408.115 901.504c0.231 0.001 0.505 0.002 0.779 0.002 111.305 0 201.536-90.231 201.536-201.536s-90.231-201.536-201.536-201.536c-111.305 0-201.536 90.231-201.536 201.536 0 0.068 0 0.136 0 0.203v-0.011c0.11 110.949 89.855 200.899 200.714 201.342h0.042zM632.397 326.050h-446.992c-102.352-0.109-185.296-83.052-185.405-185.394v-19.446c0.111-102.245 82.966-185.1 185.2-185.211h447.002c102.289 0 185.211 82.922 185.211 185.211v0 19.435c0 0 0 0 0 0 0 102.26-82.787 185.183-184.995 185.404h-0.021zM759.303 122.184c-0.106-70.046-56.861-126.801-126.896-126.907h-447.002c0 0 0 0 0 0-70.126 0-126.987 56.795-127.093 126.896v19.445c0.114 70.080 56.841 126.873 126.885 127.093h447.006c70.065-0.22 126.792-57.013 126.907-127.082v-0.011z" />
<glyph unicode="&#xe903;" glyph-name="search2" horiz-adv-x="1012" d="M1002.29-8.316l-146.102 151.651c-6.119 6.746-14.917 10.964-24.702 10.964-18.395 0-33.307-14.912-33.307-33.307 0-9.342 3.846-17.786 10.041-23.834l0.007-0.006 146.769-151.654c5.997-5.855 14.206-9.467 23.259-9.467 18.395 0 33.307 14.912 33.307 33.307 0 8.611-3.268 16.459-8.63 22.371l0.025-0.028zM452.296 960c-249.796 0-452.296-202.5-452.296-452.296 0-0.026 0-0.051 0-0.077v0.004c0-249.748 202.544-452.264 452.369-452.221 249.898 0.083 452.354 202.692 452.221 452.517-0.253 249.649-202.628 451.946-452.282 452.073h-0.012zM452.296 122.242c-0.001 0-0.002 0-0.003 0-213.008 0-385.684 172.677-385.684 385.684s172.677 385.684 385.684 385.684c213.008 0 385.684-172.677 385.684-385.684v0c0-213.007-172.675-385.683-385.682-385.684v0z" />
<glyph unicode="&#xe904;" glyph-name="tv" horiz-adv-x="1052" d="M1045.68 469.54c-13.226 99.307-53.764 169.215-110.413 207.988-70.315 47.9-151.649 57.484-223.292 66.195l-14.107 1.742c-53.624 7.194-115.614 11.3-178.564 11.3-94.963 0-187.743-9.345-277.472-27.165l9.013 1.493c-38.683-6.591-73.185-16.883-105.785-30.774l3.053 1.156c-40.474-16.946-73.835-44.117-97.827-78.338l-0.475-0.715c-37.031-54.88-49.508-196.629-49.508-196.629s-0.348-35.085-0.295-73.561c0.043-31.766 0.386-66.243 1.514-81.873 4.629-66.637 9.72-110.052 47.413-180.392 51.581-97.128 138.648-120.214 199.487-128.925 77.814-13.542 169.080-22.553 261.983-24.992l2.53-0.053h5.73c94.202 1.035 185.481 10.737 273.91 28.347l-9.397-1.561c68.994 13.502 140.192 31.577 190.228 86.022 55.107 58.146 72.19 228.014 72.19 228.014s6.23 25.468 6.103 88.935c-0.149 67.44 1.214 35.868-6.020 103.784zM979.671 281.179s-15.528-145.258-55.205-188.378-99.413-55.97-154.3-65.334c-77.038-15.261-166.12-24.562-257.171-25.686l-0.948-0.009c-91.806 2.376-179.638 11.153-265.415 25.934l10.822-1.543c-76.269 10.889-121.236 39.419-150.774 94.733-31.963 59.89-35.732 94.15-39.038 153.606-1.010 15.359-1.419 46.358-1.56 76.006-0.159 33.159 0.040 64.216 0.040 64.216s10.349 129.296 38.367 171.11c17.618 24.789 41.545 44.035 69.465 55.58l1.059 0.388c25.409 10.919 55.045 19.636 85.901 24.735l2.269 0.31c76.832 15.429 165.25 24.376 255.717 24.61h0.189c60.057-0.067 119.123-4.022 177.040-11.626l-6.871 0.737 14.769-1.742c66.132-8.057 136.886-16.334 193.535-55.099 40.78-27.876 71.18-82.539 82.418-162.68 6.873-65.309 5.333-31.133 5.482-97.484 0.136-60.256-5.805-82.382-5.805-82.382zM669.693 952.195l-172.474-193.527c-1.053-1.053-2.736-1.053-4.841 1.053l-106.533 97.479c-5.815 6.581-14.276 10.71-23.7 10.71-17.441 0-31.579-14.139-31.579-31.579 0-10.532 5.155-19.859 13.080-25.596l0.092-0.063 105.256-96.636c11.879-11.809 28.241-19.12 46.31-19.158h0.007c18.832 0.354 35.728 8.359 47.764 21.025l0.027 0.029 173.329 193.527c3.954 5.216 6.334 11.816 6.334 18.971 0 17.441-14.139 31.579-31.579 31.579-8.312 0-15.874-3.211-21.513-8.461l0.019 0.018z" />
<glyph unicode="&#xe905;" glyph-name="search" d="M991.284 27.298l-243.714 253.474c62.663 74.491 96.997 168.216 96.997 265.788 0 227.967-185.473 413.44-413.44 413.44s-413.44-185.473-413.44-413.44 185.473-413.44 413.44-413.44c85.582 0 167.137 25.813 236.865 74.815l245.565-255.398c10.264-10.66 24.069-16.538 38.863-16.538 14.003 0 27.287 5.339 37.371 15.046 21.427 20.618 22.11 54.808 1.492 76.253zM431.128 852.146c168.504 0 305.586-137.082 305.586-305.586s-137.082-305.586-305.586-305.586-305.586 137.082-305.586 305.586 137.082 305.586 305.586 305.586z" />
<glyph unicode="&#xe906;" glyph-name="star" horiz-adv-x="1152" d="M1056.2 617l-292.2 42.6-130.6 264.8c-23.4 47.2-91.2 47.8-114.8 0l-130.6-264.8-292.2-42.6c-52.4-7.6-73.4-72.2-35.4-109.2l211.4-206-50-291c-9-52.6 46.4-92 92.8-67.4l261.4 137.4 261.4-137.4c46.4-24.4 101.8 14.8 92.8 67.4l-50 291 211.4 206c38 37 17 101.6-35.4 109.2zM777.2 335.4l47.4-276.8-248.6 130.6-248.6-130.6 47.4 276.8-201.2 196 278 40.4 124.4 252 124.4-252 278-40.4-201.2-196z" />
<glyph unicode="&#xe907;" glyph-name="chevron-left" d="M701.83 949.768l-478.147-478.18c-6.839-6.832-10.264-14.692-10.264-23.583s3.425-16.765 10.264-23.601l478.147-478.14c6.85-6.85 14.71-10.264 23.605-10.264 8.891 0 16.762 3.425 23.597 10.264l51.288 51.292c6.839 6.839 10.257 14.71 10.257 23.601s-3.418 16.762-10.257 23.601l-403.24 403.247 403.265 403.262c6.839 6.836 10.235 14.71 10.235 23.587 0 8.906-3.418 16.776-10.235 23.612l-51.31 51.299c-6.836 6.836-14.71 10.232-23.597 10.232-8.898 0.004-16.769-3.393-23.608-10.228z" />
<glyph unicode="&#xe908;" glyph-name="chevron-right" d="M322.17-53.77l478.147 478.18c6.839 6.832 10.264 14.692 10.264 23.583s-3.425 16.765-10.264 23.601l-478.147 478.14c-6.85 6.85-14.71 10.264-23.605 10.264-8.891 0-16.762-3.425-23.597-10.264l-51.288-51.292c-6.839-6.839-10.257-14.71-10.257-23.601s3.418-16.762 10.257-23.601l403.24-403.247-403.265-403.262c-6.839-6.836-10.235-14.71-10.235-23.587 0-8.906 3.418-16.776 10.235-23.612l51.31-51.299c6.836-6.836 14.71-10.232 23.597-10.232 8.898-0.004 16.769 3.393 23.608 10.228z" />
<glyph unicode="&#xe909;" glyph-name="chevron-down" d="M10.232 637.83l478.18-478.147c6.832-6.839 14.692-10.264 23.583-10.264s16.765 3.425 23.601 10.264l478.14 478.147c6.85 6.85 10.264 14.71 10.264 23.605 0 8.891-3.425 16.762-10.264 23.597l-51.292 51.288c-6.839 6.839-14.71 10.257-23.601 10.257s-16.762-3.418-23.601-10.257l-403.247-403.24-403.262 403.265c-6.836 6.839-14.71 10.235-23.587 10.235-8.906 0-16.776-3.418-23.612-10.235l-51.299-51.31c-6.836-6.836-10.232-14.71-10.232-23.597-0.004-8.898 3.393-16.769 10.228-23.608z" />
<glyph unicode="&#xe90a;" glyph-name="chevron-up" d="M1013.768 258.17l-478.18 478.147c-6.832 6.839-14.692 10.264-23.583 10.264s-16.765-3.425-23.601-10.264l-478.14-478.147c-6.85-6.85-10.264-14.71-10.264-23.605 0-8.891 3.425-16.762 10.264-23.597l51.292-51.288c6.839-6.839 14.71-10.257 23.601-10.257s16.762 3.418 23.601 10.257l403.247 403.24 403.262-403.265c6.836-6.839 14.71-10.235 23.587-10.235 8.906 0 16.776 3.418 23.612 10.235l51.299 51.31c6.836 6.836 10.232 14.71 10.232 23.597 0.004 8.898-3.393 16.769-10.228 23.608z" />
<glyph unicode="&#xe90b;" glyph-name="telegram" d="M512-64c282.837 0 512 229.163 512 512s-229.163 512-512 512-512-229.163-512-512 229.163-512 512-512zM234.283 459.093l493.653 190.336c22.912 8.277 42.923-5.589 35.499-40.235l0.043 0.043-84.053-395.989c-6.229-28.075-22.912-34.901-46.251-21.675l-128 94.336-61.739-59.477c-6.827-6.827-12.587-12.587-25.813-12.587l9.088 130.261 237.227 214.315c10.325 9.088-2.304 14.208-15.915 5.163l-293.163-184.576-126.379 39.424c-27.435 8.704-28.032 27.435 5.803 40.661z" />
<glyph unicode="&#xe90c;" glyph-name="twitter" d="M512 960c-282.727 0-512-229.273-512-512s229.273-512 512-512 512 229.273 512 512-229.273 512-512 512zM745.773 560.797c0.227-5.039 0.336-10.102 0.336-15.188 0-155.289-118.203-334.359-334.367-334.367v0c-66.367 0-128.125 19.453-180.133 52.789 9.195-1.086 18.555-1.625 28.031-1.625 55.063 0 105.734 18.781 145.961 50.305-51.445 0.953-94.82 34.93-109.789 81.625 7.164-1.375 14.531-2.125 22.086-2.125 10.727 0 21.117 1.445 30.992 4.141-53.773 10.766-94.281 58.289-94.281 115.195 0 0.531 0 1.008 0.016 1.5 15.836-8.805 33.945-14.102 53.227-14.695-31.555 21.055-52.297 57.047-52.297 97.82 0 21.531 5.82 41.703 15.914 59.070 57.953-71.109 144.563-117.875 242.234-122.789-2.016 8.609-3.055 17.578-3.055 26.797 0 64.875 52.633 117.508 117.531 117.508 33.805 0 64.336-14.289 85.781-37.133 26.773 5.281 51.914 15.063 74.625 28.523-8.789-27.43-27.414-50.445-51.68-65 23.773 2.844 46.43 9.148 67.484 18.508-15.727-23.57-35.672-44.273-58.617-60.859z" />
<glyph unicode="&#xe90d;" glyph-name="email" d="M512 960c-282.771 0-512-229.229-512-512s229.229-512 512-512 512 229.229 512 512-229.229 512-512 512zM742.67 675.556l-230.86-182.509-238.369 182.509h469.229zM766.421 220.444h-516.741v378.031l238.194-180.67c6.386-4.883 15.834-7.324 23.452-7.324 7.799 0 14.568 2.56 21.025 7.661l234.069 186.197v-383.896z" />
<glyph unicode="&#xe90e;" glyph-name="facebook" d="M594.555-57.336c-4.266-0.695-8.547-1.336-12.844-1.922 4.297 0.586 8.578 1.227 12.844 1.922zM604.797-55.586c-2.039-0.375-4.078-0.719-6.117-1.070 2.039 0.352 4.078 0.695 6.117 1.070zM570.273-60.68c-4.992-0.563-10.016-1.063-15.055-1.484 5.039 0.422 10.063 0.922 15.055 1.484zM580.109-59.477c-2.398-0.32-4.813-0.617-7.219-0.898 2.406 0.281 4.82 0.578 7.219 0.898zM618.734-52.82c-1.797-0.383-3.602-0.766-5.406-1.133 1.805 0.367 3.609 0.75 5.406 1.133zM653.328-44.227c-1.453-0.414-2.906-0.805-4.359-1.211 1.453 0.406 2.906 0.797 4.359 1.211zM642.867-47.086c-1.578-0.414-3.164-0.836-4.75-1.234 1.586 0.398 3.172 0.813 4.75 1.234zM629.18-50.508c-1.672-0.391-3.359-0.758-5.047-1.133 1.688 0.375 3.375 0.742 5.047 1.133zM555.055-62.18c-2.695-0.227-5.391-0.43-8.094-0.609 2.703 0.18 5.398 0.383 8.094 0.609zM1024 448c0 282.727-229.273 512-512 512s-512-229.273-512-512 229.273-512 512-512c3.008 0 6 0.063 9 0.117v398.57h-110v128.195h110v94.336c0 109.406 66.789 168.953 164.383 168.953 46.734 0 86.906-3.484 98.617-5.039v-114.344h-67.297c-53.094 0-63.375-25.234-63.375-62.258v-81.648h126.953l-16.547-128.195h-110.406v-378.906c214.008 61.352 370.672 258.516 370.672 492.219zM545.828-62.859c-5.328-0.344-10.68-0.617-16.047-0.797 5.367 0.18 10.719 0.453 16.047 0.797zM529.508-63.672c-2.828-0.094-5.664-0.164-8.5-0.211 2.836 0.047 5.672 0.117 8.5 0.211z" />
<glyph unicode="&#xe90f;" glyph-name="instagram" d="M610 448c0-54.125-43.875-98-98-98s-98 43.875-98 98 43.875 98 98 98 98-43.875 98-98zM741.188 621.391c-4.711 12.766-12.227 24.32-21.992 33.805-9.484 9.766-21.031 17.281-33.805 21.992-10.359 4.023-25.922 8.813-54.586 10.117-31.008 1.414-40.305 1.719-118.805 1.719-78.508 0-87.805-0.297-118.805-1.711-28.664-1.313-44.234-6.102-54.586-10.125-12.773-4.711-24.328-12.227-33.805-21.992-9.766-9.484-17.281-21.031-22-33.805-4.023-10.359-8.813-25.93-10.117-54.594-1.414-31-1.719-40.297-1.719-118.805 0-78.5 0.305-87.797 1.719-118.805 1.305-28.664 6.094-44.227 10.117-54.586 4.719-12.773 12.227-24.32 21.992-33.805 9.484-9.766 21.031-17.281 33.805-21.992 10.359-4.031 25.93-8.82 54.594-10.125 31-1.414 40.289-1.711 118.797-1.711 78.516 0 87.812 0.297 118.805 1.711 28.664 1.305 44.234 6.094 54.594 10.125 25.641 9.891 45.906 30.156 55.797 55.797 4.023 10.359 8.813 25.922 10.125 54.586 1.414 31.008 1.711 40.305 1.711 118.805 0 78.508-0.297 87.805-1.711 118.805-1.305 28.664-6.094 44.234-10.125 54.594zM512 297.031c-83.383 0-150.977 67.586-150.977 150.969s67.594 150.969 150.977 150.969c83.375 0 150.969-67.586 150.969-150.969s-67.594-150.969-150.969-150.969zM668.938 569.656c-19.484 0-35.281 15.797-35.281 35.281s15.797 35.281 35.281 35.281 35.281-15.797 35.281-35.281c-0.008-19.484-15.797-35.281-35.281-35.281zM512 960c-282.727 0-512-229.273-512-512s229.273-512 512-512 512 229.273 512 512-229.273 512-512 512zM804.227 326.789c-1.422-31.297-6.398-52.664-13.664-71.367-15.273-39.492-46.492-70.711-85.984-85.984-18.695-7.266-40.070-12.234-71.359-13.664-31.352-1.43-41.367-1.773-121.211-1.773-79.852 0-89.859 0.344-121.219 1.773-31.289 1.43-52.664 6.398-71.359 13.664-19.625 7.383-37.391 18.953-52.078 33.914-14.953 14.68-26.523 32.453-33.906 52.070-7.266 18.695-12.242 40.070-13.664 71.359-1.445 31.359-1.781 41.375-1.781 121.219s0.336 89.859 1.773 121.211c1.422 31.297 6.391 52.664 13.656 71.367 7.383 19.617 18.961 37.391 33.922 52.070 14.68 14.961 32.453 26.531 52.070 33.914 18.703 7.266 40.070 12.234 71.367 13.664 31.352 1.43 41.367 1.773 121.211 1.773s89.859-0.344 121.211-1.781c31.297-1.422 52.664-6.391 71.367-13.648 19.617-7.383 37.391-18.961 52.078-33.922 14.953-14.688 26.531-32.453 33.906-52.070 7.273-18.703 12.242-40.070 13.672-71.367 1.43-31.352 1.766-41.367 1.766-121.211s-0.336-89.859-1.773-121.211z" />
<glyph unicode="&#xe910;" glyph-name="close" d="M989.386 758.305l-310.266-310.298 310.266-310.283c46.15-46.168 46.15-120.954 0-167.122-23.059-23.059-53.291-34.597-83.508-34.597-30.267 0-60.502 11.521-83.544 34.597l-310.333 310.318-310.31-310.316c-23.056-23.059-53.291-34.597-83.535-34.597-30.235 0-60.449 11.521-83.526 34.597-46.15 46.148-46.15 120.937 0 167.122l310.257 310.283-310.274 310.295c-46.15 46.15-46.15 120.954 0 167.105 46.142 46.115 120.901 46.115 167.061 0l310.324-310.298 310.301 310.298c46.168 46.115 120.937 46.115 167.069 0 46.168-46.15 46.168-120.954 0.018-167.105z" />
<glyph unicode="&#xe911;" glyph-name="error" d="M1003.529 213.901l-358.75 621.384c-58.597 102.651-206.777 102.651-265.163 0l-358.961-621.384c-58.597-102.651 14.333-230.173 132.582-230.173h716.447c118.248 0 192.444 128.788 133.846 230.173zM511.986 121.578c-31.196 0-57.122 25.926-57.122 57.122s25.926 57.122 57.122 57.122c31.196 0 57.122-25.926 55.857-58.597 1.475-29.72-25.926-55.646-55.857-55.646zM564.049 490.868c-2.529-44.264-5.27-88.317-7.799-132.582-1.265-14.333-1.265-27.402-1.265-41.524-1.265-23.397-19.603-41.524-42.999-41.524s-41.524 16.863-42.999 40.259c-3.794 68.926-7.799 136.586-11.593 205.512-1.265 18.127-2.529 36.465-4.005 54.592 0 29.931 16.863 54.592 44.264 62.391 27.402 6.534 54.592-6.534 66.396-32.46 4.005-9.064 5.27-18.127 5.27-28.666-1.265-28.877-4.005-57.543-5.27-85.999z" />
<glyph unicode="&#xe912;" glyph-name="airplay" horiz-adv-x="1280" d="M260 0l380 500 380-500zM1216 896h-1152v-768h212.9l48.6 64h-197.5v640h1024v-640h-197.5l48.6-64h212.9z" />
<glyph unicode="&#xe913;" glyph-name="replay" d="M94.525 498.027c8.63 28.047 38.835 44.228 66.882 35.599s44.228-38.835 35.599-66.882c-9.709-30.205-14.024-62.568-14.024-94.93 0-181.229 147.788-329.017 329.017-329.017s329.017 147.788 329.017 329.017c0 181.229-147.788 329.017-329.017 329.017h-188.781l61.489-61.489c20.497-20.497 20.497-55.016 0-75.513-10.788-10.788-23.733-16.181-37.756-16.181s-26.969 5.393-37.756 16.181l-153.182 153.182c-9.709 9.709-16.181 23.733-16.181 37.756s5.393 28.047 16.181 37.756l153.182 152.103c20.497 20.497 55.016 20.497 75.513 0s20.497-55.016 0-75.513l-61.489-61.489h188.781c240.561 0 435.813-195.253 435.813-435.813s-195.253-435.813-435.813-435.813c-240.561 0-435.813 195.253-435.813 435.813 0 43.15 6.472 85.221 18.338 126.213zM464.535 526.074c-21.575 12.945-49.623-2.157-49.623-28.047v-253.506c0-25.89 28.047-40.992 49.623-28.047l206.040 126.213c20.497 12.945 20.497 43.15 0 55.016l-206.040 128.37z" />
<glyph unicode="&#xe914;" glyph-name="rewind" d="M952.626-55.753v0.861c0 1.206-2.766 1.723-5.366 1.723s-5.366-0.559-5.366-1.723v-0.861c0-0.775 0.387-1.551 1.107-2.11l2.766-2.11c0.166-0.129 0.221-0.259 0.221-0.431v-2.757c0-0.172 0.111-0.302 0.332-0.344l1.605-0.387c0.277-0.043 0.553 0.087 0.553 0.344v3.101c0 0.172 0.111 0.302 0.221 0.431l2.821 2.153c0.719 0.559 1.107 1.335 1.107 2.11zM947.26-55.71c-2.655 0-4.094 0.559-4.15 0.775v0c0.055 0.215 1.494 0.775 4.15 0.775s4.039-0.559 4.15-0.775c-0.111-0.215-1.494-0.775-4.15-0.775zM949.406-60.072c-0.307 0-0.511-0.214-0.511-0.536s0.204-0.536 0.511-0.536h2.198c0.307 0 0.511 0.214 0.511 0.536s-0.204 0.536-0.511 0.536h-2.198zM951.604-61.52h-2.198c-0.307 0-0.511-0.214-0.511-0.536s0.204-0.536 0.511-0.536h2.198c0.307 0 0.511 0.214 0.511 0.536s-0.204 0.536-0.511 0.536zM951.604-62.927h-2.198c-0.307 0-0.511-0.214-0.511-0.536s0.204-0.536 0.511-0.536h2.198c0.307 0 0.511 0.214 0.511 0.536 0 0.269-0.204 0.536-0.511 0.536zM89.618 500.356c8.586 27.906 38.639 44.005 66.545 35.419s44.005-38.639 35.419-66.545c-9.66-30.053-13.953-62.252-13.953-94.452 0-180.316 147.043-327.359 327.359-327.359s327.359 147.043 327.359 327.359c0 180.316-147.043 327.359-327.359 327.359h-187.829l61.179-61.179c20.393-20.393 20.393-54.739 0-75.132-10.733-10.733-23.613-16.1-37.565-16.1s-26.833 5.366-37.565 16.1l-152.41 152.41c-9.66 9.66-16.1 23.613-16.1 37.565s5.366 27.906 16.1 37.565l152.41 151.337c20.393 20.393 54.739 20.393 75.132 0s20.393-54.739 0-75.132l-61.179-61.179h187.829c239.348 0 433.617-194.269 433.617-433.617s-194.269-433.617-433.617-433.617c-239.348 0-433.617 194.269-433.617 433.617 0 42.933 6.44 84.792 18.246 125.577zM392.845 241.911v200.5l-52.645-29.069-17.673 43.976 77.839 41.739h45.501v-257.148h-53.021zM599.287 504.649c15.292 0 29.018-3.105 41.176-9.317s22.562-15.156 31.211-26.833c8.649-11.677 15.229-25.714 19.742-42.113s6.769-34.907 6.769-55.529c0-20.622-2.319-39.255-6.957-55.902s-11.281-30.808-19.929-42.485c-8.649-11.677-19.178-20.622-31.586-26.833s-26.385-9.317-41.927-9.317c-15.292 0-29.018 3.105-41.176 9.317s-22.562 15.156-31.211 26.833c-8.649 11.677-15.229 25.714-19.742 42.113s-6.769 34.907-6.769 55.529c0 20.622 2.319 39.255 6.957 55.902s11.281 30.808 19.929 42.485c8.649 11.677 19.178 20.622 31.586 26.833s26.385 9.317 41.927 9.317zM598.536 455.828c-14.54 0-25.758-7.392-33.655-22.174s-11.845-35.839-11.845-63.169c0-27.33 3.948-48.385 11.845-63.169s19.115-22.174 33.655-22.174c14.54 0 25.758 7.392 33.655 22.174s11.845 35.839 11.845 63.169c0 27.33-3.948 48.385-11.845 63.169s-19.115 22.174-33.655 22.174z" />
<glyph unicode="&#xe915;" glyph-name="fullscreen" d="M919.544 517.596v238.228c0 4.002-0.020 18.394-0.064 22.086l-263.662-262.73-70.030 74.192 265.24 267.294c-5.972 0.16-22.914 0.234-29.796 0.234h-244.614v103.034l295.056 0.032c39.528 0.582 77.784-14.442 105.884-42.354 31.332-31.12 46.558-74.776 42.408-118.58 0-58.512 0-222.918 0-281.44h-100.42zM103.844 141.846c0-5.846 0.044-21.918 0.138-27.116l274.124 273.212 73.812-73.42-274.568-273.648c4.51-0.074 19.812-0.116 24.818-0.116h240.474v-103.034h-283.282c-42.236-3.474-91.822-4.712-124.17 26.938-30.6 29.934-32.21 74.5-31.766 116.472 0 66.528 0 238.938-0.012 305.464h100.43v-244.75z" />
<glyph unicode="&#xe916;" glyph-name="fullscreenjw-off" d="M748.038 609.896c4.534-0.074 19.91-0.118 24.944-0.118h241.678v-103.552h-284.702c-42.448-3.49-92.284-4.736-124.792 27.072-30.754 30.084-32.37 74.872-31.924 117.056 0 66.86 0 240.134-0.010 306.996h100.934v-245.978c0-5.874 0.044-22.028 0.138-27.252l275.496 274.582 74.182-73.788-275.942-275.016zM445.596-60.27h-100.924v239.424c0 4.024-0.022 18.484-0.064 22.198l-264.984-264.046-70.382 74.566 266.57 268.634c-6.002 0.16-23.028 0.234-29.944 0.234h-245.838v103.552l296.536 0.032c39.724 0.586 78.174-14.514 106.414-42.566 31.488-31.274 46.79-75.15 42.618-119.174 0-58.804 0-224.034 0-282.85z" />
<glyph unicode="&#xe917;" glyph-name="volumejw-off" d="M49.3 200.749h189.805l210.346-158.581c32.867-24.65 78.888-1.643 78.888 39.44v732.925c0 40.262-46.843 64.090-78.888 39.44l-210.346-158.581h-189.805c-27.115 0-49.3-22.185-49.3-49.3v-396.872c0-26.285 22.185-48.47 49.3-48.47zM1005.718 626.371c-22.185 22.185-59.16 22.185-81.345 0l-96.956-96.956-96.956 96.956c-22.185 22.185-59.16 22.185-81.345 0-22.177-22.185-22.177-59.16 0-81.345l96.965-96.956-96.965-96.956c-22.177-22.185-22.177-59.16 0-81.345 11.503-11.495 26.293-17.255 41.083-17.255 14.798 0 29.58 5.752 41.083 17.255l96.965 96.965 96.948-96.965c11.503-11.495 26.301-17.255 41.083-17.255 14.798 0 29.588 5.752 41.083 17.255 22.193 22.185 22.193 59.16 0 81.345l-98.6 96.956 96.965 96.956c22.177 22.185 22.177 59.16-0.008 81.345z" />
<glyph unicode="&#xe918;" glyph-name="volume" d="M425.408 832.946l-194.498-145.651h-177.624c-29.308 0-53.287-23.979-53.287-53.287v-371.233c0-29.317 23.979-53.287 53.287-53.287h177.624l194.498-145.651c35.525-26.644 85.259-1.776 85.259 42.63v683.851c0 44.406-50.623 69.273-85.259 42.63zM686.515 745.91c-23.979 23.979-63.944 23.979-87.915 0-23.979-23.979-23.979-63.944 0-87.924 115.455-115.455 115.455-302.857 0-418.312-23.979-23.979-23.979-63.944 0-87.915 12.425-12.434 28.411-17.762 43.509-17.762s31.981 6.208 43.518 18.65c165.19 162.526 165.19 428.961 0.888 593.263zM755.788 885.345c-23.97-23.979-23.97-63.944 0-87.924 93.252-93.252 144.772-216.701 144.772-349.030s-51.52-255.778-144.772-349.030c-23.97-23.979-23.97-63.944 0-87.924 12.434-12.425 28.42-18.65 43.518-18.65 15.986 0 31.972 6.217 43.518 17.762 116.343 116.343 181.167 271.764 181.167 436.954s-63.944 319.722-181.167 436.954c-23.091 24.867-62.168 24.867-87.036 0.888z" />
<glyph unicode="&#xe919;" glyph-name="audio-tracks" d="M372.365 498.741l232.726 38.788v45.925l-232.726-38.819zM837.819 866.908h-744.727c-51.343 0-93.092-41.749-93.092-93.090v-744.727c0-51.34 41.749-93.092 93.092-93.092h744.727c51.34 0 93.092 41.749 93.092 93.092v744.727c0 51.34-41.751 93.090-93.092 93.090zM651.638 261.818c0-26.954-29.363-46.545-69.818-46.545s-69.818 19.591-69.818 46.545c0 26.954 29.363 46.545 69.818 46.545 8.332 0 16.041-1.015 23.273-2.57v184.558l-232.728-38.791v-236.287c0-26.954-29.363-46.545-69.818-46.545s-69.818 19.591-69.818 46.545 29.363 46.545 69.818 46.545c8.332 0 16.041-1.015 23.273-2.57v305.117c0 11.363 8.228 21.092 19.455 22.955l279.273 46.545c6.772 1.183 13.658-0.772 18.864-5.182 5.228-4.455 8.228-10.909 8.228-17.773v-349.091zM930.91 960h-744.729c-34.309 0-63.999-18.855-80.145-46.545h778.327c51.343 0 93.092-41.751 93.092-93.092v-778.327c27.689 16.145 46.545 45.836 46.545 80.145v744.727c0 51.343-41.749 93.092-93.090 93.092z" />
<glyph unicode="&#xe91a;" glyph-name="next" d="M892.232 920.992c-72.77 0-131.768-58.999-131.768-131.768v-302.365c-5.663 6.438-12.261 12.102-19.872 16.513l-621.363 358.741c-24.601 14.208-54.885 14.208-79.486 0-24.581-14.188-39.743-40.439-39.743-68.835v-717.442c0-28.416 15.162-54.647 39.743-68.855 12.3-7.074 26.052-10.631 39.743-10.631 13.731 0 27.443 3.557 39.743 10.631l621.363 358.741c7.611 4.431 14.208 10.095 19.872 16.533v-275.479c0-72.77 58.999-131.768 131.768-131.768s131.768 58.999 131.768 131.768v682.448c0 72.77-58.999 131.768-131.768 131.768z" />
<glyph unicode="&#xe91b;" glyph-name="pause" d="M433.878 853.422v-810.844c0-58.831-47.711-106.578-106.578-106.578h-189.14c-58.902 0-106.578 47.747-106.578 106.578v810.844c0 58.831 47.676 106.578 106.578 106.578h189.14c58.867 0 106.578-47.747 106.578-106.578zM885.84 960h-189.105c-58.902 0-106.578-47.747-106.578-106.578v-810.844c0-58.831 47.676-106.578 106.578-106.578h189.105c58.902 0 106.578 47.747 106.578 106.578v810.844c0 58.831-47.64 106.578-106.578 106.578z" />
<glyph unicode="&#xe91c;" glyph-name="play" d="M217.828 937.422c-92.319 52.956-167.166 9.574-167.166-96.819v-785.131c0-106.499 74.847-149.825 167.166-96.919l686.243 393.556c92.351 52.974 92.351 138.801 0 191.763l-686.243 393.55z" />
<glyph unicode="&#xe91d;" glyph-name="link" d="M511.949 960c282.769 0 512.051-229.18 512.051-511.949s-229.283-512.051-512.051-512.051c-282.769 0-511.949 229.283-511.949 512.051s229.18 511.949 511.949 511.949zM684.269 492.538c-11.761-11.761-11.761-30.783 0-42.543s30.885-11.761 42.645 0l21.271 21.271c58.496 58.496 58.496 154.424 0 212.92-58.496 58.599-154.424 58.599-212.92 0l-95.313-95.211c-58.496-58.496-58.496-154.424 0.102-212.92 11.761-11.761 30.783-11.761 42.543 0s11.761 30.782 0 42.543c-35.18 35.18-35.18 92.654 0 127.834l95.211 95.211c35.18 35.18 92.654 35.18 127.834 0s35.18-92.551 0-127.731l-21.374-21.374zM339.629 403.462c11.761 11.761 11.761 30.885 0 42.645s-30.782 11.761-42.543 0l-21.271-21.374c-58.496-58.496-58.496-154.424 0-212.92 58.496-58.599 154.321-58.599 212.92 0l95.211 95.211c58.599 58.599 58.599 154.424 0 213.023-11.761 11.761-30.782 11.761-42.542 0s-11.761-30.885 0-42.645c35.077-35.18 35.18-92.654 0-127.731l-95.313-95.313c-35.078-35.077-92.551-35.077-127.731 0-35.18 35.18-35.18 92.551 0 127.834l21.271 21.271z" />
<glyph unicode="&#xe91e;" glyph-name="logout" d="M534.412 937.59c-103.941 0-203.248-32.185-287.182-93.074-9.616-6.975-12.229-20.18-5.996-30.296l78.827-127.886c3.317-5.375 8.723-9.133 14.922-10.357 6.192-1.221 12.622 0.186 17.739 3.893 49.062 35.592 107.12 54.406 167.902 54.406 157.851 0 286.272-128.421 286.272-286.272s-128.421-286.272-286.272-286.272c-60.781 0-118.839 18.811-167.902 54.406-5.117 3.71-11.547 5.123-17.739 3.893-6.199-1.224-11.605-4.979-14.922-10.357l-78.827-127.89c-6.234-10.116-3.62-23.318 5.996-30.296 83.934-60.892 183.241-93.077 287.182-93.077 269.96 0 489.589 219.629 489.589 489.589s-219.629 489.589-489.589 489.589zM311.687 264.381c3.955 7.385 3.52 16.343-1.124 23.307l-53.314 79.972h322.598c44.301 0 80.341 36.040 80.341 80.341s-36.040 80.341-80.341 80.341h-322.598l53.314 79.972c4.648 6.965 5.079 15.922 1.124 23.307-3.951 7.382-11.643 11.991-20.018 11.991h-153.69c-7.589 0-14.681-3.793-18.891-10.112l-115.274-172.904c-5.086-7.627-5.086-17.56 0-25.19l115.271-172.904c4.21-6.316 11.302-10.112 18.891-10.112h153.693c8.378 0 16.070 4.61 20.018 11.991z" />
<glyph unicode="&#xe91f;" glyph-name="premium" d="M945.738 107.085l-121.269 208.421c18.784 6.105 37.62 14.3 47.527 31.398 12.066 20.832 6.079 46.58 0.799 69.301-3.5 15.056-7.12 30.625-4.513 40.949 2.81 11.119 13.641 23.562 24.116 35.595 15.538 17.851 31.607 36.311 31.607 59.188 0 22.127-16.439 43.137-32.34 63.456-10.874 13.895-22.113 28.263-24.991 39.571-2.627 10.329 0.964 25.907 4.436 40.972 5.24 22.727 11.179 48.485-0.927 69.295s-37.434 28.375-59.782 35.053c-14.811 4.427-30.126 9.003-37.805 16.391-8.158 7.853-13.496 23.388-18.656 38.416-7.802 22.712-15.869 46.195-36.376 57.16-7.525 4.022-16.043 5.979-26.044 5.979-13.655 0-27.935-3.711-41.745-7.3-12.645-3.286-24.586-6.393-34.622-6.393-2.864 0-5.354 0.251-7.611 0.77-10.851 2.502-23.32 13.133-35.381 23.411-18.043 15.378-36.704 31.284-59.762 31.284-28.352 0-62.879-27.656-85.726-45.958-4.727-3.785-10.498-8.407-13.013-10.050-1.928-0.345-4.073-0.519-6.398-0.519-10.015-0.003-21.931 3.072-34.542 6.327-13.767 3.554-28.001 7.226-41.613 7.226-10.064 0-18.63-1.971-26.181-6.028-20.487-11.005-28.512-34.505-36.271-57.231-5.132-15.036-10.44-30.583-18.582-38.447-7.668-7.405-22.975-12.009-37.78-16.462-22.336-6.718-47.65-14.331-59.722-35.164-12.066-20.832-6.079-46.577-0.799-69.292 3.503-15.056 7.123-30.628 4.516-40.966-2.616-10.355-13.182-23.095-23.4-35.412-15.82-19.072-33.752-40.686-33.752-65.937 0-22.903 16.123-41.345 31.718-59.18 10.498-12.007 21.349-24.421 24.176-35.523 2.627-10.326-0.964-25.904-4.436-40.966-5.24-22.727-11.179-48.485 0.93-69.303 10.249-17.615 29.533-25.605 48.434-31.598l-121.728-210.093c-6.86-11.835-7.642-24.372-2.148-34.388 5.494-10.018 16.485-16.094 30.16-16.673l87.919-3.663c13.176-0.553 31.584-11.219 38.615-22.37l46.916-74.45c7.163-11.362 17.7-17.883 28.914-17.883 11.641 0 22.324 6.915 29.31 18.973 1.141 1.968 100.736 173.919 125.682 216.965 12.489-9.094 31.892-20.439 50.947-20.439 17.566 0 32.659 9.080 46.52 20.014 11.179-19.261 41.631-72.148 125.257-215.889 6.995-12.024 17.669-19.466 29.29-19.466 0.003 0 0.003 0 0.003 0 11.231 0 21.774 7.080 28.928 18.479l46.782 74.803c7.020 11.171 25.405 22.008 38.575 22.581l87.914 3.899c13.67 0.599 24.649 6.726 30.129 16.75 5.477 10.030 4.673 22.592-2.208 34.416zM628.094 451.194l10.623-61.932c1.423-8.31 0.203-13.307-1.275-15.059-0.28-0.331-0.93-1.107-3.443-1.107-1.868 0-5.945 0.499-12.269 3.822l-55.623 29.242c-14.4 7.568-33.298 11.738-53.215 11.738s-38.815-4.17-53.212-11.738l-55.623-29.242c-6.321-3.323-10.403-3.822-12.269-3.822-2.51 0-3.164 0.773-3.443 1.104-1.478 1.751-2.699 6.749-1.272 15.059l10.623 61.938c5.697 33.224-8.749 77.684-32.887 101.212l-44.999 43.864c-6.746 6.578-8.304 11.704-7.705 13.544 0.596 1.84 4.869 5.069 14.194 6.424l62.189 9.037c33.361 4.847 71.18 32.325 86.099 62.554l27.81 56.353c4.168 8.446 8.561 11.513 10.498 11.513 1.934 0 6.327-3.067 10.498-11.513l27.813-56.353c14.919-30.229 52.739-57.705 86.099-62.554l62.186-9.037c9.322-1.355 13.598-4.587 14.194-6.424 0.599-1.84-0.961-6.966-7.708-13.544l-44.997-43.861c-24.141-23.531-38.587-67.991-32.887-101.218z" />
<glyph unicode="&#xe920;" glyph-name="watchlist" d="M904.533 960.001h-785.067c0 0 0 0-0.001 0-65.979 0-119.465-53.486-119.465-119.465 0 0 0 0 0-0.001v0-785.067c0 0 0-0.001 0-0.001 0-65.979 53.486-119.466 119.465-119.466h785.067c65.98 0 119.467 53.487 119.467 119.467v0 785.067c0 65.979-53.487 119.465-119.466 119.465 0 0-0.001 0-0.001 0v0zM222.438 122.243c0 0 0 0-0.001 0-39.981 0-72.391 32.411-72.391 72.391s32.411 72.391 72.391 72.391c39.981 0 72.391-32.411 72.391-72.391 0 0 0 0 0-0.001v0c0-39.98-32.41-72.39-72.39-72.391v0zM222.438 375.611c0 0 0 0-0.001 0-39.981 0-72.391 32.411-72.391 72.391s32.411 72.391 72.391 72.391c39.981 0 72.391-32.411 72.391-72.391 0 0 0 0 0-0.001v0c0-39.98-32.41-72.39-72.39-72.391v0zM222.438 628.98c0 0 0 0-0.001 0-39.981 0-72.391 32.411-72.391 72.391s32.411 72.391 72.391 72.391c39.98 0 72.391-32.41 72.391-72.39v0c0 0 0 0 0 0 0-39.98-32.41-72.391-72.39-72.392v0zM837.76 158.438h-398.151c-19.967 0.030-36.144 16.224-36.144 36.196s16.176 36.166 36.141 36.196h398.153c19.967-0.030 36.144-16.224 36.144-36.196s-16.176-36.166-36.141-36.196h-0.002zM837.76 411.806h-398.151c-19.967 0.030-36.144 16.224-36.144 36.196s16.176 36.166 36.141 36.196h398.153c19.967-0.030 36.144-16.224 36.144-36.196s-16.176-36.166-36.141-36.196h-0.002zM837.76 665.175h-398.151c-19.99 0-36.196 16.205-36.196 36.196s16.205 36.196 36.196 36.196h398.151c19.99 0 36.196-16.205 36.196-36.196s-16.205-36.196-36.196-36.196v0z" />
<glyph unicode="&#xe921;" glyph-name="star-filled" d="M821.311 316.796c-6.338-6.338-8.873-13.944-7.606-22.819l41.834-247.196c5.071-29.157-6.338-57.045-30.424-74.793-13.944-10.142-29.157-15.211-44.369-15.211-12.677 0-24.086 2.535-35.495 8.873l-221.843 116.625c-7.606 3.804-16.48 3.804-24.086 0l-221.843-115.358c-25.353-13.944-57.045-11.409-79.864 6.338-24.086 17.748-35.495 45.636-30.424 74.793l43.101 247.196c1.267 7.606-1.267 16.48-7.606 22.819l-180.009 173.671c-20.282 20.282-27.888 50.707-19.015 78.595s32.959 48.172 60.849 51.974l248.464 35.495c8.873 1.267 15.211 6.338 19.015 13.944l111.556 225.647c12.677 26.621 39.298 41.834 68.455 41.834 0 0 0 0 0 0 29.157 0 55.778-16.48 68.455-41.834l111.556-225.647c3.804-7.606 11.409-12.677 19.015-13.944l248.464-35.495c29.157-3.804 51.974-24.086 60.849-51.974s1.267-57.045-19.015-78.595l-180.009-174.94z" />
<glyph unicode="&#xe922;" glyph-name="settings" d="M1010.775 563.598c-1.43 3.596-3.186 6.7-5.296 9.522l0.076-0.107c-17.184 21.873-43.636 35.793-73.339 35.793-1.311 0-2.615-0.027-3.912-0.081l0.186 0.006h-5.22c-17.652 0.47-32.877 10.421-40.813 24.926l-0.125 0.25c-0.032-0.002-0.069-0.004-0.106-0.004-0.735 0-1.331 0.596-1.331 1.331 0 0.037 0.001 0.075 0.005 0.111v-0.005c-5.425 9.416-10.234 17.194-15.761 26.609-0.57 0.137-0.992 0.63-1.023 1.224v0.004c-4.558 7.351-7.26 16.269-7.26 25.816 0 8.533 2.158 16.561 5.957 23.57l-0.13-0.261c1.324 0.923 2.259 2.327 2.554 3.954l0.005 0.037c8.896 14.861 14.157 32.785 14.157 51.937 0 12.772-2.34 24.998-6.614 36.271l0.234-0.703c-1.066 3.655-2.863 6.811-5.238 9.436l0.019-0.020c-16.717 15.833-34.596 31.049-53.257 45.293l-1.599 1.171c-2.559 1.228-5.425 2.559-9.211 3.992-5.832 1.254-12.532 1.973-19.401 1.973-24.756 0-47.334-9.331-64.406-24.669l0.089 0.079c-1.547-0.445-2.843-1.344-3.774-2.542l-0.012-0.016c-7.437-6.369-17.173-10.244-27.815-10.244-0.332 0-0.662 0.004-0.993 0.011l0.049-0.001c-6.686 0.122-13 1.579-18.732 4.114l0.31-0.122c-8.247 3.663-18.225 7.161-28.513 9.901l-1.473 0.334c-16.235 5.903-28.226 19.83-31.274 36.859l-0.044 0.292c-0.327 1.97-0.826 3.724-1.494 5.392l0.061-0.174c-4.032 31.272-22.914 57.401-49.231 71.395l-0.508 0.246c-2.614 1.53-5.753 2.441-9.104 2.456h-0.005c-10.539 0.668-22.854 1.049-35.257 1.049s-24.719-0.381-36.934-1.132l1.675 0.082c-3.404-0.316-6.529-1.227-9.366-2.629l0.156 0.070c-26.759-14.878-45.548-41.309-49.685-72.372l-0.054-0.497c-0.908-0.843-1.474-2.044-1.474-3.377 0-0.216 0.015-0.43 0.044-0.638l-0.002 0.024c-2.765-17.465-14.891-31.536-30.989-37.053l-0.329-0.097c-9.006-2.559-19.548-6.55-29.987-10.234-5.427-1.358-11.742-2.275-18.224-2.552l-0.199-0.006c-10.932 0.107-20.946 3.948-28.849 10.304l0.091-0.070c-1.228 1.433-2.559 1.433-3.787 2.763-16.895 15.29-39.408 24.649-64.107 24.649-6.944 0-13.715-0.74-20.239-2.144l0.63 0.114c-3.613-0.094-6.855-1.603-9.21-3.99l-0.001-0.001c-20.538-14.215-38.513-29.461-54.879-46.28l-0.080-0.082c-2.090-2.707-3.85-5.818-5.135-9.164l-0.085-0.251c-4.28-10.648-6.764-22.995-6.764-35.92 0-19.083 5.412-36.901 14.786-52.005l-0.244 0.421c0.905-1.162 1.753-2.467 2.487-3.844l0.071-0.147c3.651-6.75 5.796-14.776 5.796-23.302 0-9.546-2.69-18.465-7.352-26.038l0.124 0.215c-0.032 0.002-0.069 0.004-0.106 0.004-0.735 0-1.331-0.596-1.331-1.331 0-0.037 0.001-0.075 0.005-0.111v0.005c-5.080-7.545-10.058-16.266-14.4-25.349l-0.542-1.261c-0.032 0.002-0.069 0.004-0.106 0.004-0.735 0-1.331-0.596-1.331-1.331 0-0.037 0.001-0.075 0.005-0.111v0.005c-7.561-15.039-22.87-25.179-40.547-25.179-0.137 0-0.275 0-0.412 0.001h-5.301c-0.732 0.020-1.593 0.031-2.457 0.031-30.121 0-56.981-13.961-74.462-35.767l-0.146-0.187c-2.356-2.605-4.154-5.759-5.177-9.247l-0.042-0.169c-5.653-20.959-10.338-46.213-13.108-72.041l-0.196-2.26c-0.021-0.405-0.034-0.877-0.034-1.353 0-3.18 0.537-6.233 1.524-9.075l-0.059 0.194c9.931-28.243 31.753-50.099 59.295-59.866l0.678-0.21c1.998-0.367 3.749-0.863 5.431-1.503l-0.211 0.070c16.079-5.704 27.806-19.827 29.964-36.929l0.022-0.222v-1.433c1.167-11.619 3.007-22.068 5.544-32.241l-0.325 1.538v-1.433c0.476-2.621 0.748-5.638 0.748-8.718 0-14.872-6.344-28.262-16.475-37.612l-0.035-0.031c-1.547-0.445-2.843-1.344-3.774-2.542l-0.012-0.016c-22.183-18.009-36.306-45.199-36.536-75.696v-0.039c0.349-3.77 1.257-7.241 2.644-10.457l-0.085 0.222c13.038-26.396 26.072-48.578 40.482-69.751l-1.284 1.999c1.237-3.807 4.176-6.746 7.896-7.958l0.087-0.025c13.344-7.632 29.33-12.132 46.366-12.132 12.798 0 25.003 2.54 36.138 7.142l-0.628-0.23c0.355-0.074 0.763-0.116 1.181-0.116 1.555 0 2.973 0.588 4.044 1.554l-0.005-0.005c4.57 1.623 9.841 2.561 15.332 2.561 0.151 0 0.301-0.001 0.452-0.002h-0.022c0.055 0 0.12 0 0.185 0 5.96 0 11.666-1.088 16.929-3.077l-0.33 0.109c6.029-2.355 11.236-5.391 15.881-9.1l-0.121 0.094 23.54-20.469 1.433-1.433c10.763-9.018 17.558-22.464 17.558-37.497 0-2.624-0.207-5.198-0.606-7.71l0.036 0.277c-0.901-1.418-1.435-3.145-1.435-4.997 0-0.079 0.001-0.156 0.002-0.234v0.011c-1.332-6.107-2.094-13.12-2.094-20.313 0-22.879 7.716-43.956 20.687-60.772l-0.172 0.232c2.506-2.782 5.579-5.002 9.043-6.486l0.169-0.064c21.268-10.82 46.116-20.303 72.041-27.136l2.671-0.598c1.75-0.662 3.773-1.044 5.884-1.044s4.135 0.384 6.003 1.084l-0.117-0.039c28.563 5.99 51.995 24.116 65.046 48.611l0.25 0.513c0.905 1.162 1.753 2.467 2.487 3.844l0.071 0.147c7.221 14.267 21.772 23.878 38.568 23.878 1.194 0 2.377-0.049 3.547-0.144l-0.154 0.010h32.75c0.352 0.010 0.767 0.015 1.183 0.015 17.389 0 32.566-9.469 40.658-23.531l0.121-0.227c0.905-1.162 1.753-2.467 2.487-3.844l0.071-0.147c13.278-25.028 36.72-43.163 64.677-49.017l0.618-0.109h5.22c1.433 0 3.787 0 2.149 2.763 30.306 9.474 54.992 18.955 78.969 29.734l-4.463-1.794c3.655 1.493 6.739 3.722 9.186 6.521l0.024 0.029c13.305 15.73 21.395 36.245 21.395 58.649 0 0.321-0.001 0.643-0.005 0.963v-0.049c-0.017 6.6-0.687 13.034-1.948 19.253l0.106-0.626c0.025 0.345 0.040 0.746 0.040 1.152 0 2.476-0.542 4.825-1.515 6.935l0.042-0.102c-0.24 1.79-0.377 3.859-0.377 5.96 0 15.365 7.33 29.019 18.682 37.656l0.116 0.085c-0.262 0.262-0.424 0.623-0.424 1.023 0 0.8 0.648 1.448 1.448 1.448 0.4 0 0.762-0.162 1.023-0.424v0c8.711 6.42 16.4 13.134 23.498 20.426l0.041 0.042h1.433c8.133 7.427 19.005 11.976 30.939 11.976 0.132 0 0.266 0 0.399-0.001h-0.020c0.104 0.001 0.226 0.001 0.349 0.001 3.915 0 7.708-0.523 11.313-1.504l-0.301 0.070c1.668-0.346 3.14-0.841 4.528-1.485l-0.126 0.052c1.998-0.367 3.749-0.863 5.431-1.503l-0.211 0.070c4.804-1.859 10.568-3.522 16.507-4.697l0.686-0.114c5.468-1.154 11.76-1.824 18.203-1.843h0.014c0.252-0.002 0.551-0.004 0.851-0.004 17.006 0 32.974 4.441 46.809 12.226l-0.48-0.249 7.983 7.983c14.373 19.593 27.462 41.84 38.224 65.374l0.974 2.377c1.544 2.977 2.481 6.488 2.559 10.209v0.025c-0.562 30.463-14.593 57.54-36.37 75.601l-0.166 0.134c-1.228 1.228-2.559 2.559-3.787 3.992-9.936 8.318-16.21 20.726-16.21 34.6 0 2.236 0.162 4.434 0.477 6.583l-0.030-0.244v1.535c2.191 8.607 4.030 19.056 5.137 29.721l0.082 0.982v1.126c5.015 30.293 27.429 37.867 30.089 37.867 0.354-0.074 0.761-0.116 1.178-0.116 1.76 0 3.343 0.753 4.448 1.954l0.004 0.004c28.080 9.815 49.805 31.507 59.46 58.892l0.206 0.672c0.929 2.649 1.465 5.702 1.465 8.881 0 0.476-0.012 0.949-0.036 1.419l0.002-0.066c-2.504 27.755-7.025 53.088-13.516 77.621l0.723-3.217zM512.155 232.208c-0.517-0.005-1.128-0.007-1.739-0.007-116.041 0-210.113 94.071-210.113 210.113s94.071 210.113 210.113 210.113c115.823 0 209.758-93.716 210.111-209.457v-0.034c0.006-0.578 0.009-1.261 0.009-1.945 0-115.166-93.246-208.553-208.36-208.781h-0.022z" />
<glyph unicode="&#xe923;" glyph-name="image" d="M859.356 756.98h-808.027c-28.315 0-51.329-22.986-51.329-51.357v-628.503c0-28.286 23.014-51.329 51.329-51.329h808.027c28.343 0 51.357 23.014 51.357 51.329v628.532c-0.085 28.4-23.014 51.329-51.357 51.329zM808.056 654.35v-462.641l-117.368 142.451c-4.308 5.243-11.961 6.179-17.431 2.154l-136.499-99.682-234.396 228.018c-2.721 2.664-6.491 3.826-10.147 3.6-3.798-0.34-7.171-2.352-9.325-5.413l-180.232-257.892v449.405h705.398zM500.252 461.931c0 46 37.384 83.413 83.328 83.413 46 0 83.356-37.413 83.356-83.413 0-45.887-37.356-83.356-83.356-83.356-45.944 0-83.328 37.498-83.328 83.356zM985.51 211.861c-21.257 0-38.433 17.232-38.433 38.433v543.050h-799.524c-21.257 0-38.461 17.176-38.461 38.433 0 21.229 17.204 38.433 38.461 38.433h837.957c21.257 0 38.461-17.204 38.461-38.433v-581.511c0.028-21.172-17.204-38.405-38.461-38.405z" />
<glyph unicode="&#xe924;" glyph-name="download" d="M441.68 242.522c38.877-38.735 101.741-38.735 140.641 0l332.802 331.195c21.506 21.412 28.029 54.049 16.425 82.102s-38.9 46.699-69.292 46.699h-138.939v181.951c0 41.382-33.937 75.531-75.319 75.531h-272.041c-41.405 0-75.815-34.126-75.815-75.531v-181.928h-138.443c-30.345 0-57.688-18.67-69.269-46.699-11.58-28.053-5.105-60.524 16.401-81.912l332.849-331.407zM1008.119 72.647c0 41.358-33.535 74.941-74.964 74.941h-842.356c-41.382 0-74.941-33.535-74.941-74.941v-61.706c0-41.382 33.559-74.941 74.941-74.941h842.403c41.382 0 74.941 33.559 74.941 74.941l-0.024 61.706z" />
<glyph unicode="&#xe925;" glyph-name="subtitles" d="M814 818h-604c-115.797 0-210-94.203-210-210v-321.359c0-115.789 94.203-210 210-210h604c115.797 0 210 94.211 210 210v321.359c0 115.797-94.203 210-210 210zM224.391 583.367h91.445c16.57 0 30-13.43 30-30s-13.43-30-30-30h-91.445c-16.57 0-30 13.43-30 30s13.43 30 30 30zM224.391 417.32c-16.57 0-30 13.438-30 30 0 16.57 13.43 30 30 30h394.227c16.57 0 30-13.43 30-30 0-16.563-13.43-30-30-30zM345.836 341.281c0-16.57-13.43-30-30-30h-91.445c-16.57 0-30 13.43-30 30 0 16.563 13.43 30 30 30h91.445c16.57 0 30-13.438 30-30zM405.383 371.281h394.227c16.57 0 30-13.438 30-30 0-16.57-13.43-30-30-30h-394.227c-16.57 0-30 13.43-30 30 0 16.563 13.43 30 30 30zM678.164 447.32c0 16.57 13.43 30 30 30h91.445c16.57 0 30-13.43 30-30 0-16.563-13.43-30-30-30h-91.445c-16.57 0-30 13.438-30 30zM799.609 523.367h-394.227c-16.57 0-30 13.43-30 30s13.43 30 30 30h394.227c16.57 0 30-13.43 30-30s-13.43-30-30-30z" />
<glyph unicode="&#xe926;" glyph-name="share" d="M1013.15 601.715l-292.575 292.569c-7.239 7.239-15.808 10.86-25.713 10.86s-18.479-3.621-25.713-10.86c-7.239-7.243-10.864-15.816-10.864-25.719v-146.285h-127.999c-271.63 0-438.287-76.764-500.010-230.288-20.185-51.041-30.276-114.477-30.276-190.287 0-63.234 24.192-149.137 72.571-257.712 1.141-2.672 3.134-7.233 5.996-13.708 2.86-6.471 5.428-12.185 7.714-17.142 2.294-4.946 4.771-9.137 7.435-12.561 4.567-6.479 9.903-9.725 16-9.725 5.714 0 10.191 1.903 13.432 5.712 3.232 3.807 4.852 8.574 4.852 14.274 0 3.439-0.476 8.478-1.431 15.149-0.953 6.671-1.431 11.136-1.431 13.426-1.907 25.895-2.86 49.342-2.86 70.279 0 38.474 3.338 72.951 9.999 103.425 6.671 30.48 15.908 56.855 27.72 79.144 11.811 22.296 27.044 41.52 45.715 57.712 18.664 16.192 38.756 29.425 60.28 39.713 21.528 10.289 46.86 18.385 76.003 24.288 29.141 5.904 58.473 10.001 88 12.289s62.956 3.424 100.291 3.424h127.999v-146.289c0-9.903 3.617-18.477 10.85-25.713 7.245-7.231 15.814-10.856 25.713-10.856 9.903 0 18.477 3.625 25.727 10.856l292.569 292.579c7.239 7.239 10.856 15.808 10.856 25.713-0.002 9.903-3.617 18.477-10.85 25.731z" />
<glyph unicode="&#xe927;" glyph-name="twitter-square" d="M967.665 903.672c-37.54 37.55-82.77 56.328-135.654 56.328h-640.005c-52.884 0-98.114-18.778-135.671-56.328-37.55-37.557-56.328-82.784-56.328-135.671v-639.998c0-52.882 18.778-98.114 56.328-135.671 37.557-37.557 82.787-56.335 135.671-56.335h639.998c52.884 0 98.114 18.778 135.654 56.335 37.557 37.557 56.335 82.787 56.335 135.671v639.998c-0.002 52.886-18.781 98.121-56.328 135.671zM783.339 565.997c0.446-4 0.672-9.989 0.672-18.003 0-37.335-5.45-74.78-16.334-112.325-10.884-37.564-27.553-73.563-50.007-108.005-22.43-34.44-49.209-64.893-80.316-91.335-31.114-26.433-68.442-47.553-112.007-63.319-43.544-15.79-90.219-23.684-139.993-23.684-77.327 0-148.882 20.903-214.663 62.663 10.666-1.326 21.784-1.996 33.333-1.996 64.447 0 122.447 20 174.005 60.011-30.218 0.432-57.223 9.758-80.998 27.999-23.782 18.22-40.333 41.328-49.669 69.33 11.551-1.775 20.217-2.655 25.994-2.655 9.777 0 21.113 1.775 33.998 5.322-32.443 6.232-59.772 22.328-81.995 48.328-22.227 26.003-33.337 55.667-33.337 88.998v1.333c23.549-11.103 45.771-16.88 66.663-17.331-40.445 27.117-60.667 66-60.667 116.666 0 24.892 6.44 48.445 19.329 70.668 35.107-43.114 77.783-77.554 127.998-103.33 50.22-25.774 104.003-40.226 161.333-43.334-2.218 8.444-3.332 19.115-3.332 31.999 0 38.673 13.667 71.667 41.003 99.003 27.327 27.334 60.33 41.006 98.992 41.006 40.898 0 74.906-14.671 102.013-44.006 30.668 5.777 60.459 17.116 89.339 33.998-11.108-34.213-31.787-60.216-61.995-77.995 28.88 4.007 55.761 11.558 80.645 22.669-18.664-28.443-42.005-52.665-70.005-72.674z" />
<glyph unicode="&#xe928;" glyph-name="facebook-square" d="M874 960h-724c-82.703 0-150-67.297-150-150v-724c0-82.703 67.297-150 150-150h302v362h-120v180h120v122c0 99.258 80.742 180 180 180h182v-180h-182v-122h182l-30-180h-152v-362h242c82.703 0 150 67.297 150 150v724c0 82.703-67.297 150-150 150z" />
<glyph unicode="&#xe929;" glyph-name="link-square" d="M128.014 960c-70.416 0-128.014-57.597-128.014-128.014v-768.027c0-70.36 57.597-127.959 128.014-127.959h768.027c70.36 0 127.959 57.597 127.959 127.959v768.027c0 70.416-57.597 128.014-127.959 128.014h-768.027zM640.014 725.336c-23.582 0-42.671 19.089-42.671 42.671s19.089 42.671 42.671 42.671h191.992c23.582 0 42.671-19.144 42.671-42.671v-191.992c0-23.582-19.089-42.671-42.671-42.671-23.527 0-42.671 19.089-42.671 42.671v89.005l-247.15-247.205c-16.646-16.646-43.67-16.646-60.317 0-16.702 16.702-16.702 43.67 0 60.372l247.15 247.15h-89.005zM789.336 405.329c0 23.582 19.144 42.671 42.671 42.671 23.582 0 42.671-19.089 42.671-42.671v-277.336c0-23.582-19.089-42.671-42.671-42.671h-640.014c-23.527 0-42.671 19.089-42.671 42.671v640.014c0 23.582 19.144 42.671 42.671 42.671h277.336c23.582 0 42.671-19.089 42.671-42.671s-19.089-42.671-42.671-42.671h-234.664v-554.671h554.671v234.664z" />
<glyph unicode="&#xe92a;" glyph-name="imdb" d="M914.286 960h-804.571c-60.571 0-109.714-49.143-109.714-109.714v-804.571c0-60.571 49.143-109.714 109.714-109.714h804.571c60.571 0 109.714 49.143 109.714 109.714v804.571c0 60.571-49.143 109.714-109.714 109.714zM48.686 509.257h-0.686c0.229 0.229 0.457 0.686 0.686 0.914zM221.714 302.171h-75.429v292.114h75.429zM480.457 302.171h-65.6v197.486l-26.514-197.486h-47.086l-27.886 193.143v-193.143h-66.286v292.114h97.829c7.543-45.257 13.714-91.2 19.886-136.914l17.371 136.914h98.286zM506.514 302.171v292.114h56.229c40.229 0 102.171 3.657 112-47.771 3.886-17.371 3.2-37.257 3.2-55.771 0-202.286 25.371-188.8-171.429-188.571zM874.286 368.914c0-35.886-5.486-70.629-50.743-70.629-20.571 0-34.743 6.857-47.771 22.4l-4.343-18.514h-68.114v292.114h72.457v-95.314c13.714 14.857 27.429 21.029 47.771 21.029 48.914 0 50.743-29.257 50.743-68.8zM605.714 507.657c0 22.171 3.657 36.571-23.543 36.571v-191.314c27.886-0.686 23.543 19.886 23.543 42.057zM801.143 448c0 12.343 2.514 29.029-14.171 29.029-13.714 0-11.2-20.343-11.2-29.029 0-1.371-2.514-90.514 2.514-102.171 1.829-3.657 5.029-5.486 8.686-5.486 17.829 0 14.171 20.571 14.171 32.914z" />
<glyph unicode="&#xe92b;" glyph-name="instagram-square" d="M512.114 710.482c-145.29 0-262.482-117.192-262.482-262.482s117.192-262.482 262.482-262.482 262.482 117.192 262.482 262.482-117.192 262.482-262.482 262.482zM512.114 277.352c-93.89 0-170.648 76.529-170.648 170.648s76.529 170.648 170.648 170.648 170.648-76.529 170.648-170.648-76.757-170.648-170.648-170.648zM846.556 721.219c0-34.038-27.413-61.223-61.223-61.223-34.038 0-61.223 27.413-61.223 61.223s27.413 61.223 61.223 61.223 61.223-27.413 61.223-61.223zM1020.402 659.082c-3.884 82.011-22.616 154.657-82.697 214.509-59.852 59.852-132.497 78.585-214.509 82.697-84.524 4.797-337.869 4.797-422.393 0-81.783-3.884-154.428-22.616-214.509-82.468s-78.585-132.497-82.697-214.509c-4.797-84.524-4.797-337.869 0-422.393 3.884-82.011 22.616-154.657 82.697-214.509s132.497-78.585 214.509-82.697c84.524-4.797 337.869-4.797 422.393 0 82.011 3.884 154.657 22.616 214.509 82.697 59.852 59.852 78.585 132.497 82.697 214.509 4.797 84.524 4.797 337.64 0 422.164zM911.206 146.226c-17.819-44.775-52.314-79.27-97.317-97.317-67.391-26.728-227.302-20.56-301.774-20.56s-234.612-5.94-301.774 20.56c-44.775 17.819-79.27 52.314-97.317 97.317-26.728 67.391-20.56 227.302-20.56 301.774s-5.94 234.612 20.56 301.774c17.819 44.775 52.314 79.27 97.317 97.317 67.391 26.728 227.302 20.56 301.774 20.56s234.612 5.94 301.774-20.56c44.775-17.819 79.27-52.314 97.317-97.317 26.728-67.391 20.56-227.302 20.56-301.774s6.168-234.612-20.56-301.774z" />
<glyph unicode="&#xe92c;" glyph-name="check" d="M463.534 101.095c-46.427-46.427-121.76-46.427-168.165 0l-260.549 260.549c-46.427 46.405-46.427 121.737 0 168.142 46.405 46.427 121.737 46.427 168.165 0l155.236-155.213c11.719-11.696 30.742-11.696 42.484 0l420.333 420.333c46.405 46.427 121.737 46.427 168.165 0 22.295-22.295 34.82-52.544 34.82-84.071s-12.526-61.776-34.82-84.071l-525.668-525.668z" />
<glyph unicode="&#xe92d;" glyph-name="whatsapp" d="M512.128 960h-0.256c-282.304 0-511.872-229.632-511.872-512 0-112 36.096-215.808 97.472-300.096l-63.808-190.208 196.8 62.912c80.96-53.632 177.536-84.608 281.664-84.608 282.304 0 511.872 229.696 511.872 512s-229.568 512-511.872 512zM810.048 236.992c-12.352-34.88-61.376-63.808-100.48-72.256-26.752-5.696-61.696-10.24-179.328 38.528-150.464 62.336-247.36 215.232-254.912 225.152-7.232 9.92-60.8 80.96-60.8 154.432s37.312 109.248 52.352 124.608c12.352 12.608 32.768 18.368 52.352 18.368 6.336 0 12.032-0.32 17.152-0.576 15.040-0.64 22.592-1.536 32.512-25.28 12.352-29.76 42.432-103.232 46.016-110.784 3.648-7.552 7.296-17.792 2.176-27.712-4.8-10.24-9.024-14.784-16.576-23.488s-14.72-15.36-22.272-24.704c-6.912-8.128-14.72-16.832-6.016-31.872 8.704-14.72 38.784-63.808 83.072-103.232 57.152-50.88 103.488-67.136 120.064-74.048 12.352-5.12 27.072-3.904 36.096 5.696 11.456 12.352 25.6 32.832 40 52.992 10.24 14.464 23.168 16.256 36.736 11.136 13.824-4.8 86.976-40.96 102.016-48.448 15.040-7.552 24.96-11.136 28.608-17.472 3.584-6.336 3.584-36.096-8.768-71.040z" />
<glyph unicode="&#xe92e;" glyph-name="cart" d="M8.909 730.221c7.968 10.207 20.198 16.173 33.149 16.173h800.656l11.901 132.586c1.947 21.682 20.118 38.296 41.886 38.296h85.445c23.226 0 42.055-18.828 42.055-42.055s-18.828-42.055-42.055-42.055h-46.997l-46.096-513.545c-0.010-0.605 0.020-1.2-0.014-1.808-0.094-1.614-0.304-3.192-0.573-4.746l-1.686-18.776c-0.032-0.354-0.068-0.709-0.11-1.059-5.111-44.278-27.738-82.641-60.459-108.561 16.954-21.652 27.099-48.878 27.099-78.446 0-70.303-57.196-127.5-127.498-127.5s-127.5 57.196-127.5 127.5c0 15.23 2.694 29.839 7.612 43.39h-230.171c4.92-13.552 7.612-28.161 7.612-43.39 0-70.303-57.196-127.5-127.5-127.5s-127.5 57.196-127.5 127.5 57.196 127.5 127.5 127.5h469.662c31.946 0 59.784 19.273 71.799 47.354l-672.089 39.499c-18.348 1.077-33.872 13.95-38.332 31.781l-85.451 341.784c-3.138 12.56-0.316 25.87 7.652 36.079z" />
<glyph unicode="&#xe92f;" glyph-name="crown" d="M721.944 426.586l-175.371 441.125c-13.49 33.725-62.054 33.725-75.544 0l-168.626-441.125-234.728 219.889c-29.678 26.98-76.893 0-66.102-39.122l95.779-388.515c6.745-26.98 31.028-47.215 60.705-47.215h708.23c28.329 0 53.96 20.235 60.705 47.215l95.779 388.515c9.442 39.122-37.773 66.102-66.102 39.122l-234.728-219.889zM848.75 2.997h-666.411c-35.074 0-63.403 28.329-63.403 63.403v0c0 35.074 28.329 63.403 63.403 63.403h665.062c35.074 0 63.403-28.329 63.403-63.403v0c0-35.074-28.329-63.403-62.054-63.403z" />
<glyph unicode="&#xe930;" glyph-name="hexagon" d="M893.344 766.187c0.028-0.016 0.060-0.035 0.095-0.054 54.003-31.179 84.338-87.606 84.704-145.762l-0.025-0.908-0.213-342.758c0.208-28.17-7.101-57.679-22.69-84.679s-37.491-48.086-62.764-62.466l0.774 0.476-296.719-171.374c-51.322-29.236-115.357-31.179-169.36 0-0.033 0.020-0.066 0.038-0.099 0.058l-296.391 171.121c-0.028 0.016-0.060 0.035-0.095 0.054-54.003 31.179-84.338 87.606-84.704 145.762l0.025 0.908 0.185 342.709c-0.208 28.17 7.101 57.679 22.69 84.679s37.491 48.086 62.764 62.466l-0.774-0.476 296.797 171.395c51.322 29.236 115.357 31.179 169.36 0 0.033-0.020 0.066-0.038 0.099-0.058l-0.005 0.003z" />
<glyph unicode="&#xe931;" glyph-name="eye" d="M1019.998 432.228c5.338 9.828 5.338 21.716 0 31.545-97.822 180.109-288.627 302.381-507.996 302.381s-410.176-122.274-507.998-302.381c-5.338-9.828-5.338-21.716 0-31.545 97.824-180.109 288.626-302.383 507.996-302.383s410.174 122.274 507.998 302.383zM512 203.955c-134.783 0-244.045 109.263-244.045 244.045s109.262 244.047 244.045 244.047 244.047-109.263 244.047-244.047-109.263-244.045-244.047-244.045zM512 572.369c-10.267 0-20.237-1.253-29.78-3.597 9.773-11.311 15.7-26.040 15.7-42.161 0-35.639-28.891-64.532-64.532-64.532-16.121 0-30.851 5.925-42.161 15.7-2.344-9.542-3.597-19.513-3.597-29.78 0-68.688 55.683-124.369 124.369-124.369s124.369 55.683 124.369 124.369-55.679 124.371-124.367 124.371z" />
<glyph unicode="&#xe932;" glyph-name="movie" d="M512-64c-282.304 0-512 229.696-512 512s229.696 512 512 512 512-229.696 512-512-229.696-512-512-512zM512 896c-247.040 0-448-200.96-448-448s200.96-448 448-448 448 200.96 448 448-200.96 448-448 448zM755.36 240.864c-13.088 0-26.368 2.016-39.424 6.273-32.544 10.56-59.007 33.153-74.527 63.616-15.487 30.464-18.24 65.12-7.68 97.664 21.856 67.136 94.112 104 161.313 82.176 32.513-10.56 58.976-33.152 74.496-63.616 15.488-30.433 18.24-65.12 7.68-97.664-17.6-53.984-67.904-88.416-121.856-88.448zM755.487 432.896c-26.976 0-52.128-17.216-60.896-44.224-5.28-16.256-3.904-33.6 3.84-48.8 7.744-15.264 20.992-26.528 37.248-31.808 33.76-10.944 69.76 7.487 80.672 41.087 5.28 16.256 3.904 33.6-3.84 48.8-7.744 15.264-20.993 26.528-37.248 31.808-6.592 2.113-13.247 3.136-19.776 3.136zM576 448c0-35.346-28.654-64-64-64s-64 28.654-64 64c0 35.346 28.654 64 64 64s64-28.654 64-64zM512 64c-70.592 0-128 57.408-128 128s57.408 128 128 128 128-57.408 128-128-57.408-128-128-128zM512 256c-35.296 0-64-28.704-64-64s28.704-64 64-64 64 28.704 64 64-28.704 64-64 64zM662.272 527.168c-26.047 0-52.384 7.936-75.072 24.384-57.087 41.504-69.76 121.696-28.288 178.784 41.44 57.056 121.633 69.793 178.784 28.32 27.648-20.096 45.856-49.792 51.2-83.52 5.344-33.793-2.784-67.616-22.913-95.264-24.992-34.432-64.064-52.704-103.712-52.704zM662.56 719.072c-19.808 0-39.327-9.152-51.873-26.367-20.704-28.544-14.367-68.673 14.144-89.408 28.607-20.736 68.673-14.4 89.376 14.176h0.032c10.016 13.824 14.080 30.72 11.424 47.616-2.688 16.864-11.776 31.712-25.6 41.792-11.327 8.256-24.48 12.193-37.504 12.193zM361.696 527.168c-39.616 0-78.72 18.304-103.744 52.704-41.472 57.087-28.767 137.312 28.32 178.784 57.12 41.504 137.313 28.768 178.784-28.32 20.096-27.647 28.224-61.472 22.88-95.264-5.344-33.76-23.52-63.424-51.2-83.52-22.656-16.48-48.96-24.384-75.040-24.384zM361.44 719.072c-13.056 0-26.208-3.967-37.536-12.192-28.544-20.736-34.88-60.832-14.144-89.376s60.864-34.944 89.376-14.176c13.824 10.048 22.912 24.896 25.6 41.76 2.656 16.896-1.376 33.792-11.424 47.616-12.513 17.248-32.064 26.368-51.873 26.368zM268.64 240.864c-53.984 0-104.287 34.433-121.824 88.48-10.56 32.513-7.84 67.2 7.68 97.664s41.984 53.056 74.496 63.616c32.544 10.56 67.2 7.84 97.664-7.68s53.056-41.984 63.616-74.496c10.56-32.513 7.84-67.2-7.68-97.664s-41.984-53.056-74.528-63.616c-13.088-4.256-26.368-6.304-39.424-6.304zM268.608 432.928c-6.656 0-13.344-1.056-19.873-3.168-16.256-5.28-29.472-16.576-37.248-31.808-7.744-15.233-9.12-32.576-3.84-48.833 10.88-33.536 47.040-52 80.64-41.056 16.256 5.28 29.504 16.576 37.28 31.808 7.744 15.233 9.12 32.576 3.84 48.833s-16.576 29.472-31.808 37.247c-9.153 4.608-19.040 6.976-28.993 6.976zM809.567-63.648c-39.68 0-87.073 8.673-142.112 32.673-16.192 7.104-23.584 25.953-16.544 42.144 7.104 16.192 25.824 23.584 42.144 16.544 72.673-31.744 138.367-35.936 190.016-12.064 42.464 19.647 69.92 56.32 78.273 83.967 5.087 16.928 22.944 26.528 39.872 21.376 16.928-5.088 26.496-22.976 21.376-39.873-12.128-40.16-48.096-93.727-112.673-123.553-24.673-11.456-58.144-21.216-100.353-21.216z" />
</font>
</defs>
</svg>
